<svg xmlns="http://www.w3.org/2000/svg" viewBox="0 0 200 200" fill="none">
  <rect width="200" height="200" rx="20" fill="#f0e7d8"/>
  <g transform="translate(35,35)">
    <rect x="10" y="10" width="110" height="55" rx="12" fill="#184e3a"/>
    <rect x="16" y="16" width="98" height="43" rx="8" fill="#103726"/>
    <rect x="25" y="28" width="15" height="20" rx="3" fill="#d97706" opacity="0.8"/>
    <rect x="45" y="28" width="15" height="20" rx="3" fill="#d97706" opacity="0.6"/>
    <rect x="65" y="28" width="15" height="20" rx="3" fill="#d97706" opacity="0.4"/>
    <rect x="85" y="28" width="15" height="20" rx="3" fill="#1a5c44"/>
    <rect x="120" y="28" width="8" height="18" rx="3" fill="#184e3a"/>
    <rect x="122" y="26" width="4" height="4" rx="1" fill="#d97706"/>
    <text x="65" y="78" text-anchor="middle" font-family="sans-serif" font-size="11" font-weight="700" fill="#184e3a">20,000 mAh</text>
    <rect x="30" y="90" width="70" height="8" rx="4" fill="#184e3a"/>
    <rect x="30" y="90" width="50" height="8" rx="4" fill="#d97706"/>
    <circle cx="48" y="104" r="3" fill="#4ade80"/>
    <text x="65" y="118" text-anchor="middle" font-family="sans-serif" font-size="10" fill="#184e3a">USB-C • USB-A</text>
  </g>
</svg>